HIERARCHY
ROOT Hips
{
	OFFSET 0.000000 0.000000 0.000000
	CHANNELS 6 Xposition Yposition Zposition Zrotation Yrotation Xrotation 
	JOINT LeftUpLeg_virtual
	{
		OFFSET 0.000000 0.000000 0.000000
		CHANNELS 3 Zrotation Yrotation Xrotation
		JOINT LeftUpLeg
		{
			OFFSET 10.205400 -3.823500 0.155100
			CHANNELS 3 Zrotation Yrotation Xrotation
			JOINT LeftLeg
			{
				OFFSET 0.708757 -12.982077 0.567790
				CHANNELS 3 Zrotation Yrotation Xrotation
				JOINT LeftFoot
				{
					OFFSET -0.708756 -10.717838 -2.184338
					CHANNELS 3 Zrotation Yrotation Xrotation
					JOINT LeftToeBase
					{
						OFFSET 0.108149 -7.191104 7.560241
						CHANNELS 3 Zrotation Yrotation Xrotation
						End Site
						{
							OFFSET 0.000000 0.000000 0.000000
						}
					}
				}
			}
		}
	}
	JOINT RightUpLeg_virtual
	{
		OFFSET 0.000000 0.000000 0.000000
		CHANNELS 3 Zrotation Yrotation Xrotation
		JOINT RightUpLeg
		{
			OFFSET -10.205400 -3.823500 0.005500
			CHANNELS 3 Zrotation Yrotation Xrotation
			JOINT RightLeg
			{
				OFFSET -0.708756 -12.982134 0.610632
				CHANNELS 3 Zrotation Yrotation Xrotation
				JOINT RightFoot
				{
					OFFSET 0.708754 -10.717769 -1.945823
					CHANNELS 3 Zrotation Yrotation Xrotation
					JOINT RightToeBase
					{
						OFFSET -0.108140 -7.191069 7.372968
						CHANNELS 3 Zrotation Yrotation Xrotation
						End Site
						{
							OFFSET 0.000000 0.000000 0.000000
						}
					}
				}
			}
		}
	}
	JOINT Spine_virtual
	{
		OFFSET 0.000000 0.000000 0.000000
		CHANNELS 3 Zrotation Yrotation Xrotation
		JOINT Spine
		{
			OFFSET 0.000000 6.876099 0.125700
			CHANNELS 3 Zrotation Yrotation Xrotation
			JOINT Spine1
			{
				OFFSET 0.000000 8.022060 0.146608
				CHANNELS 3 Zrotation Yrotation Xrotation
				JOINT Spine2
				{
					OFFSET 0.000000 9.168068 0.167552
					CHANNELS 3 Zrotation Yrotation Xrotation
					JOINT Neck_virtual
					{
						OFFSET 0.000000 0.000000 0.000000
						CHANNELS 3 Zrotation Yrotation Xrotation
						JOINT Neck
						{
							OFFSET 0.000000 10.314075 0.188496
							CHANNELS 3 Zrotation Yrotation Xrotation
							JOINT Head
							{
								OFFSET 0.000000 7.643700 -2.377400
								CHANNELS 3 Zrotation Yrotation Xrotation
								End Site
								{
									OFFSET 0.000000 0.000000 0.000000
								}
							}
						}
					}
					JOINT LeftShoulder_virtual
					{
						OFFSET 0.000000 0.000000 0.000000
						CHANNELS 3 Zrotation Yrotation Xrotation
						JOINT LeftShoulder
						{
							OFFSET 4.392200 8.824978 0.174984
							CHANNELS 3 Zrotation Yrotation Xrotation
							JOINT LeftArm
							{
								OFFSET 8.771219 -2.981674 -0.026999
								CHANNELS 3 Zrotation Yrotation Xrotation
								JOINT LeftForeArm
								{
									OFFSET 8.512804 0.000000 -0.000000
									CHANNELS 3 Zrotation Yrotation Xrotation
									JOINT LeftHand
									{
										OFFSET 18.484802 0.000000 -0.000000
										CHANNELS 3 Zrotation Yrotation Xrotation
										End Site
										{
											OFFSET 0.000000 0.000000 0.000000
										}
									}
								}
							}
						}
					}
					JOINT RightShoulder_virtual
					{
						OFFSET 0.000000 0.000000 0.000000
						CHANNELS 3 Zrotation Yrotation Xrotation
						JOINT RightShoulder
						{
							OFFSET -4.392200 8.824993 0.141379
							CHANNELS 3 Zrotation Yrotation Xrotation
							JOINT RightArm
							{
								OFFSET -8.771282 -2.981682 -0.094208
								CHANNELS 3 Zrotation Yrotation Xrotation
								JOINT RightForeArm
								{
									OFFSET -8.494598 0.000000 0.000000
									CHANNELS 3 Zrotation Yrotation Xrotation
									JOINT RightHand
									{
										OFFSET -18.483803 0.000000 0.000001
										CHANNELS 3 Zrotation Yrotation Xrotation
										End Site
										{
											OFFSET 0.000000 0.000000 0.000000
										}
									}
								}
							}
						}
					}
				}
			}
		}
	}
}
MOTION
Frames: 10
Frame Time: 0.033333
3.648684 36.546398 13.883270 -179.926731 -0.029371 179.926075 -1.959528 -3.750069 9.177470 -2.807363 -1.535824 -14.985175 9.399384 7.240162 15.295753 -2.834601 -0.368715 9.054491 0.000000 0.000000 0.000000 2.869115 -2.394087 7.771657 -5.485244 1.274890 -12.068254 -6.498840 3.068888 15.860466 6.997765 3.996698 8.050234 0.000000 0.000000 0.000000 1.617547 -0.189027 -3.108922 -4.356738 4.320138 -5.731898 -1.044854 -3.503670 4.618801 0.027386 0.005482 -0.019129 -1.715631 -1.449467 7.380285 -0.699090 -3.000631 12.398111 0.000000 0.000000 0.000000 -0.252508 -0.694248 4.327740 6.786636 2.189064 -4.880441 -1.290879 23.801715 -40.042435 -2.847323 -45.175165 -5.043334 0.000000 0.000000 0.000000 -3.667398 0.026984 4.005437 6.856228 -14.731162 -11.303792 12.927339 -26.048137 -29.730475 -2.037768 41.922905 -3.691381 0.000000 0.000000 0.000000 
3.646700 36.546993 13.885044 -179.981768 -0.008748 179.827406 -1.918587 -3.669747 9.165388 -2.959415 -1.539795 -14.972548 9.180062 7.668469 15.286378 -3.090638 -0.592043 8.868564 0.000000 0.000000 0.000000 2.826975 -2.393414 7.825034 -5.559088 1.384680 -11.944224 -6.687326 3.106004 15.952510 6.794901 3.830143 7.824993 0.000000 0.000000 0.000000 1.596679 -0.209996 -3.072378 -4.382869 4.288123 -5.680518 -1.069770 -3.529771 4.675627 0.003478 -0.024470 -0.068177 -1.695764 -1.503149 7.386314 -0.678425 -2.991060 12.418521 0.000000 0.000000 0.000000 -0.220448 -0.676315 4.262953 6.788042 2.256662 -4.815971 -1.304265 23.794649 -40.041260 -2.759669 -45.165971 -5.125011 0.000000 0.000000 0.000000 -3.625452 -0.030086 4.070014 6.841786 -14.756888 -11.558512 12.934818 -26.039623 -29.658109 -1.947156 41.934623 -3.566792 0.000000 0.000000 0.000000 
3.644666 36.549549 13.884130 179.953000 0.053274 179.872458 -2.000426 -3.661304 9.126375 -2.969696 -1.544180 -14.968865 9.183134 7.717104 15.275781 -3.096085 -0.588305 8.877704 0.000000 0.000000 0.000000 2.752845 -2.347956 7.772141 -5.612948 1.397952 -11.957244 -6.694644 3.061554 15.948978 6.784864 3.830230 7.853147 0.000000 0.000000 0.000000 1.566162 -0.222462 -3.108347 -4.410662 4.298621 -5.699271 -1.089506 -3.508275 4.645626 -0.017880 -0.004097 0.003966 -1.667172 -1.551833 7.335839 -0.676077 -2.985227 12.390491 0.000000 0.000000 0.000000 -0.194321 -0.665331 4.223065 6.784938 2.238779 -4.847220 -1.293322 23.800542 -40.080438 -2.830129 -45.136755 -5.058995 0.000000 0.000000 0.000000 -3.589030 -0.034110 4.001424 6.881363 -14.741452 -11.553272 12.920787 -26.041025 -29.651996 -1.936319 41.904795 -3.532103 0.000000 0.000000 0.000000 
3.642163 36.549953 13.882706 -179.973559 -0.019983 179.872048 -1.912198 -3.709564 9.103945 -2.956918 -1.518291 -14.936005 9.152069 7.711541 15.272726 -3.079797 -0.571089 8.883863 0.000000 0.000000 0.000000 2.831872 -2.383148 7.746322 -5.566532 1.336791 -11.923870 -6.671594 3.178184 15.871099 6.794790 3.826090 7.860688 0.000000 0.000000 0.000000 1.603508 -0.236807 -3.110381 -4.392905 4.287950 -5.714599 -1.069089 -3.534540 4.648325 0.006799 -0.020195 -0.012340 -1.704074 -1.488500 7.342001 -0.695329 -2.983157 12.367605 0.000000 0.000000 0.000000 -0.240916 -0.670011 4.230448 6.770972 2.278175 -4.899673 -1.298034 23.728547 -40.157267 -2.990176 -45.120148 -4.946632 0.000000 0.000000 0.000000 -3.634349 -0.008954 4.020640 6.893692 -14.688236 -11.556634 12.931837 -26.022847 -29.711760 -1.855298 41.900103 -3.438104 0.000000 0.000000 0.000000 
3.637667 36.548939 13.881082 -179.970307 -0.029324 179.933752 -1.897583 -3.780846 9.058514 -2.968219 -1.509673 -14.946143 9.120385 7.745758 15.262884 -3.068402 -0.557155 8.851673 0.000000 0.000000 0.000000 2.846580 -2.407596 7.711438 -5.593321 1.385758 -11.947289 -6.672136 3.204753 15.936911 6.777100 3.832668 7.862936 0.000000 0.000000 0.000000 1.600892 -0.284782 -3.154948 -4.399068 4.297407 -5.742233 -1.060883 -3.523179 4.643345 0.016658 -0.001144 -0.001888 -1.703696 -1.461458 7.364793 -0.718829 -2.987543 12.368276 0.000000 0.000000 0.000000 -0.238615 -0.683376 4.263083 6.783068 2.273671 -4.926621 -1.310917 23.677025 -40.114773 -2.833593 -45.045159 -5.051854 0.000000 0.000000 0.000000 -3.636311 -0.062059 4.015336 6.909181 -14.676403 -11.550403 12.984067 -25.984275 -29.720796 -1.887454 41.904717 -3.439393 0.000000 0.000000 0.000000 
3.630442 36.550049 13.880018 179.961975 -0.027261 179.893263 -1.964528 -3.780001 9.086776 -2.984829 -1.498825 -14.907371 9.112123 7.750972 15.262287 -3.050662 -0.536850 8.855363 0.000000 0.000000 0.000000 2.796488 -2.441437 7.712930 -5.647992 1.392844 -11.927451 -6.672329 3.217670 15.977264 6.764125 3.842334 7.846755 0.000000 0.000000 0.000000 1.565330 -0.225633 -3.125672 -4.447120 4.325546 -5.729272 -1.083308 -3.660384 4.666407 -0.003729 0.021375 0.027288 -1.658319 -1.536616 7.309315 -0.722543 -2.950804 12.344729 0.000000 0.000000 0.000000 -0.175574 -0.714815 4.184957 6.790016 2.276447 -4.767114 -1.322237 23.637114 -40.206503 -2.774945 -45.033459 -5.131730 0.000000 0.000000 0.000000 -3.575258 -0.025316 3.964912 6.959201 -14.610809 -11.469841 13.042673 -25.906484 -29.624334 -2.089084 41.903818 -3.597560 0.000000 0.000000 0.000000 
3.621001 36.549408 13.878369 179.961128 0.003425 179.960021 -1.932962 -3.795670 9.063439 -2.981623 -1.504463 -14.922811 9.105664 7.906170 15.261137 -3.055568 -0.538070 8.875778 0.000000 0.000000 0.000000 2.819700 -2.418971 7.661491 -5.643489 1.372643 -11.958461 -6.651555 3.334351 15.942070 6.762482 3.840654 7.819842 0.000000 0.000000 0.000000 1.509566 -0.263401 -3.168182 -4.355783 4.300733 -5.764945 -1.120634 -3.540288 4.649384 -0.033910 -0.004286 -0.005143 -1.639580 -1.717751 7.361140 -0.697702 -2.883136 12.300547 0.000000 0.000000 0.000000 -0.159368 -0.740101 4.247830 6.783526 2.341698 -4.855210 -1.273740 23.588007 -40.063701 -2.796240 -44.998061 -5.112000 0.000000 0.000000 0.000000 -3.544905 -0.061450 4.016342 6.941596 -14.530944 -11.531199 13.056090 -25.921707 -29.790860 -1.934775 42.019843 -3.404597 0.000000 0.000000 0.000000 
3.610117 36.545879 13.873900 -179.997355 0.156767 179.848648 -1.896826 -3.701474 9.137268 -3.018940 -1.419137 -14.863547 9.066140 7.926359 15.281326 -3.063796 -0.534468 8.827652 0.000000 0.000000 0.000000 2.872012 -2.384510 7.662654 -5.683198 1.373444 -11.897086 -6.655239 3.512946 16.038503 6.732109 3.824155 7.724193 0.000000 0.000000 0.000000 1.586364 -0.279616 -3.091992 -4.466630 4.332178 -5.738306 -1.039361 -3.517350 4.683429 -0.006685 0.022008 -0.021426 -1.656832 -1.578639 7.287861 -0.753622 -2.887945 12.253951 0.000000 0.000000 0.000000 -0.154136 -0.719620 4.209189 6.754550 2.440899 -4.939794 -1.185049 23.528820 -39.998114 -2.756685 -44.938386 -5.117948 0.000000 0.000000 0.000000 -3.550251 -0.033296 3.939694 6.940814 -14.436279 -11.405482 13.176846 -25.938369 -29.556998 -2.316975 42.090491 -3.715783 0.000000 0.000000 0.000000 
3.597541 36.544754 13.866623 179.992929 0.113334 179.917209 -1.885854 -3.849902 9.081478 -3.042143 -1.397790 -14.879470 9.076217 8.069250 15.373146 -3.081135 -0.531667 8.768016 0.000000 0.000000 0.000000 2.885426 -2.493705 7.602883 -5.747988 1.395025 -11.938886 -6.634549 3.607867 16.030625 6.748581 3.831420 7.748854 0.000000 0.000000 0.000000 1.605492 -0.348964 -3.139900 -4.495802 4.322726 -5.758406 -1.040492 -3.536488 4.657517 -0.019744 0.000124 0.009031 -1.581631 -1.600559 7.306912 -0.700484 -2.780871 12.225209 0.000000 0.000000 0.000000 -0.128990 -0.736399 4.205765 6.709679 2.506404 -4.815615 -1.164314 23.571574 -40.000508 -2.816146 -44.867499 -5.054162 0.000000 0.000000 0.000000 -3.520368 -0.066454 3.970230 6.923294 -14.368157 -11.518001 13.165380 -26.001688 -29.674467 -2.201025 42.251383 -3.531490 0.000000 0.000000 0.000000 
3.586543 36.545971 13.858099 179.963764 0.210467 179.875108 -1.921080 -3.870688 9.077666 -3.071957 -1.284243 -14.848314 9.077876 8.129114 15.428678 -3.105049 -0.517585 8.711513 0.000000 0.000000 0.000000 2.866199 -2.524964 7.560423 -5.783165 1.341040 -11.897390 -6.611424 3.746448 15.985223 6.787865 3.836887 7.767077 0.000000 0.000000 0.000000 1.575760 -0.400216 -3.102446 -4.546454 4.342732 -5.743839 -1.030346 -3.518818 4.656395 -0.009333 0.010112 -0.003005 -1.597383 -1.640625 7.299284 -0.688013 -2.721964 12.182492 0.000000 0.000000 0.000000 -0.115355 -0.736206 4.188846 6.661338 2.604705 -4.755525 -1.110241 23.621699 -39.999531 -2.711148 -44.818424 -5.138326 0.000000 0.000000 0.000000 -3.502038 -0.053416 3.944885 6.933644 -14.276230 -11.468811 13.189629 -26.134884 -29.753011 -2.277957 42.364429 -3.541110 0.000000 0.000000 0.000000 
